<?xml version="1.0" encoding="UTF-8" standalone="no"?>
<!-- This is a Stata 17.0 generated SVG file (http://www.stata.com) -->

<svg version="1.1" width="5.50in" height="4.00in" viewBox="0 0 3960 2880" xmlns="http://www.w3.org/2000/svg" xmlns:xlink="http://www.w3.org/1999/xlink">
	<desc>Stata Graph - Graph</desc>
	<rect x="0" y="0" width="3960" height="2880" style="fill:#FFFFFF;stroke:none"/>
	<rect x="0.00" y="0.00" width="3959.88" height="2880.00" style="fill:#FFFFFF"/>
	<rect x="2.88" y="2.88" width="3954.12" height="2874.24" style="fill:none;stroke:#FFFFFF;stroke-width:5.76"/>
	<rect x="529.93" y="103.74" width="3326.21" height="2482.56" style="fill:none;stroke:#000000;stroke-width:5.76"/>
	<line x1="527.05" y1="2053.45" x2="3859.02" y2="2053.45" style="stroke:#E7ECEC;stroke-width:8.64"/>
	<line x1="527.05" y1="1581.20" x2="3859.02" y2="1581.20" style="stroke:#E7ECEC;stroke-width:8.64"/>
	<line x1="527.05" y1="1108.83" x2="3859.02" y2="1108.83" style="stroke:#E7ECEC;stroke-width:8.64"/>
	<line x1="527.05" y1="636.47" x2="3859.02" y2="636.47" style="stroke:#E7ECEC;stroke-width:8.64"/>
	<line x1="590.41" y1="2589.18" x2="590.41" y2="100.86" style="stroke:#E7ECEC;stroke-width:8.64"/>
	<line x1="1042.84" y1="2589.18" x2="1042.84" y2="100.86" style="stroke:#E7ECEC;stroke-width:8.64"/>
	<line x1="1495.39" y1="2589.18" x2="1495.39" y2="100.86" style="stroke:#E7ECEC;stroke-width:8.64"/>
	<line x1="1947.95" y1="2589.18" x2="1947.95" y2="100.86" style="stroke:#E7ECEC;stroke-width:8.64"/>
	<line x1="2400.50" y1="2589.18" x2="2400.50" y2="100.86" style="stroke:#E7ECEC;stroke-width:8.64"/>
	<line x1="2852.93" y1="2589.18" x2="2852.93" y2="100.86" style="stroke:#E7ECEC;stroke-width:8.64"/>
	<line x1="3305.49" y1="2589.18" x2="3305.49" y2="100.86" style="stroke:#E7ECEC;stroke-width:8.64"/>
	<line x1="3758.04" y1="2589.18" x2="3758.04" y2="100.86" style="stroke:#E7ECEC;stroke-width:8.64"/>
	<path d=" M590.29 1367.60 L628.03 1353.50 L665.77 1347.56 L703.39 1387.40 L741.14 1373.05 L778.88 1398.91 L816.63 1403.49 L854.25 1376.39 L891.99 1340.87 L929.73 1326.02 L967.48 1332.09 L1005.10 1374.16 L1042.84 1357.58 L1080.59 1350.15 L1118.20 1353.62 L1155.95 1359.31 L1193.69 1358.07 L1231.44 1368.59 L1269.06 1379.73 L1306.80 1350.90 L1344.54 1327.38 L1382.29 1359.19 L1419.91 1358.07 L1457.65 1371.94 L1495.39 1335.30 L1533.02 1349.91 L1570.76 1346.81 L1608.50 1355.85 L1646.25 1361.05 L1683.87 1366.49 L1721.61 1334.81 L1759.35 1332.71 L1797.10 1325.03 L1834.72 1348.79 L1872.46 1348.79 L1910.20 1362.16 L1947.83 1344.83 L1985.57 1341.00 L2023.31 1338.15 L2061.06 1340.01 L2098.68 1351.39 L2136.42 1356.59 L2174.16 1331.72 L2211.78 1323.05 L2249.53 1322.56 L2287.27 1343.10 L2325.01 1349.66 L2362.64 1346.81 L2400.38 1311.91 L2438.12 1332.09 L2475.87 1332.09 L2513.49 1316.86 L2551.23 1317.36 L2588.97 1354.49 L2626.59 1302.51 L2664.34 1296.45 L2702.08 1298.67 L2739.82 1308.70 L2777.45 1287.29 L2815.19 1295.21 L2852.93 1304.12 L2890.68 1298.80 L2928.30 1300.16 L2966.04 1257.09 L3003.78 1252.39 L3041.40 1227.14 L3079.15 1261.42 L3116.89 1251.03 L3154.64 1197.57 L3192.26 1160.44 L3230.00 1156.36 L3267.74 1149.55 L3305.49 1131.36 L3343.11 1125.05 L3380.85 1122.32 L3418.59 1114.77 L3456.21 1119.97 L3493.96 1142.25 L3531.70 1141.38 L3569.45 1126.28 L3607.07 1127.03 L3644.81 1123.19 L3682.55 1128.14 L3720.30 1140.89 L3757.92 1129.38 L3795.66 1155.24" stroke-linejoin="round" style="fill:none;stroke:#1FA138;stroke-width:8.64"/>
	<line x1="527.05" y1="2589.18" x2="527.05" y2="100.86" style="stroke:#000000;stroke-width:5.76"/>
	<line x1="527.05" y1="2525.82" x2="487.08" y2="2525.82" style="stroke:#000000;stroke-width:5.76"/>
	<text x="467.03" y="2560.84" style="font-family:'Open Sans';font-size:99.99px;fill:#274247" text-anchor="end">0.0</text>
	<line x1="527.05" y1="2053.45" x2="487.08" y2="2053.45" style="stroke:#000000;stroke-width:5.76"/>
	<text x="467.03" y="2088.48" style="font-family:'Open Sans';font-size:99.99px;fill:#274247" text-anchor="end">10.0</text>
	<line x1="527.05" y1="1581.20" x2="487.08" y2="1581.20" style="stroke:#000000;stroke-width:5.76"/>
	<text x="467.03" y="1616.23" style="font-family:'Open Sans';font-size:99.99px;fill:#274247" text-anchor="end">20.0</text>
	<line x1="527.05" y1="1108.83" x2="487.08" y2="1108.83" style="stroke:#000000;stroke-width:5.76"/>
	<text x="467.03" y="1143.86" style="font-family:'Open Sans';font-size:99.99px;fill:#274247" text-anchor="end">30.0</text>
	<line x1="527.05" y1="636.47" x2="487.08" y2="636.47" style="stroke:#000000;stroke-width:5.76"/>
	<text x="467.03" y="671.49" style="font-family:'Open Sans';font-size:99.99px;fill:#274247" text-anchor="end">40.0</text>
	<line x1="527.05" y1="164.22" x2="487.08" y2="164.22" style="stroke:#000000;stroke-width:5.76"/>
	<text x="467.03" y="199.25" style="font-family:'Open Sans';font-size:99.99px;fill:#274247" text-anchor="end">50.0</text>
	<text x="190.71" y="1344.96" style="font-family:'Open Sans';font-size:99.99px;fill:#274247" transform="rotate(-90 190.71,1344.96)" text-anchor="middle">Prosent</text>
	<line x1="527.05" y1="2589.18" x2="3859.02" y2="2589.18" style="stroke:#000000;stroke-width:5.76"/>
	<line x1="590.41" y1="2589.18" x2="590.41" y2="2629.15" style="stroke:#000000;stroke-width:5.76"/>
	<text x="590.41" y="2719.13" style="font-family:'Open Sans';font-size:99.99px;fill:#274247" text-anchor="middle">2015</text>
	<line x1="1042.84" y1="2589.18" x2="1042.84" y2="2629.15" style="stroke:#000000;stroke-width:5.76"/>
	<text x="1042.84" y="2719.13" style="font-family:'Open Sans';font-size:99.99px;fill:#274247" text-anchor="middle">2016</text>
	<line x1="1495.39" y1="2589.18" x2="1495.39" y2="2629.15" style="stroke:#000000;stroke-width:5.76"/>
	<text x="1495.39" y="2719.13" style="font-family:'Open Sans';font-size:99.99px;fill:#274247" text-anchor="middle">2017</text>
	<line x1="1947.95" y1="2589.18" x2="1947.95" y2="2629.15" style="stroke:#000000;stroke-width:5.76"/>
	<text x="1947.95" y="2719.13" style="font-family:'Open Sans';font-size:99.99px;fill:#274247" text-anchor="middle">2018</text>
	<line x1="2400.50" y1="2589.18" x2="2400.50" y2="2629.15" style="stroke:#000000;stroke-width:5.76"/>
	<text x="2400.50" y="2719.13" style="font-family:'Open Sans';font-size:99.99px;fill:#274247" text-anchor="middle">2019</text>
	<line x1="2852.93" y1="2589.18" x2="2852.93" y2="2629.15" style="stroke:#000000;stroke-width:5.76"/>
	<text x="2852.93" y="2719.13" style="font-family:'Open Sans';font-size:99.99px;fill:#274247" text-anchor="middle">2020</text>
	<line x1="3305.49" y1="2589.18" x2="3305.49" y2="2629.15" style="stroke:#000000;stroke-width:5.76"/>
	<text x="3305.49" y="2719.13" style="font-family:'Open Sans';font-size:99.99px;fill:#274247" text-anchor="middle">2021</text>
	<line x1="3758.04" y1="2589.18" x2="3758.04" y2="2629.15" style="stroke:#000000;stroke-width:5.76"/>
	<text x="3758.04" y="2719.13" style="font-family:'Open Sans';font-size:99.99px;fill:#274247" text-anchor="middle">2022</text>
</svg>
