<?xml version="1.0" encoding="UTF-8" standalone="no"?>
<!-- This is a Stata 17.0 generated SVG file (http://www.stata.com) -->

<svg version="1.1" width="5.50in" height="4.00in" viewBox="0 0 3960 2880" xmlns="http://www.w3.org/2000/svg" xmlns:xlink="http://www.w3.org/1999/xlink">
	<desc>Stata Graph - Graph</desc>
	<rect x="0" y="0" width="3960" height="2880" style="fill:#FFFFFF;stroke:none"/>
	<rect x="0.00" y="0.00" width="3959.88" height="2880.00" style="fill:#FFFFFF"/>
	<rect x="2.88" y="2.88" width="3954.12" height="2874.24" style="fill:none;stroke:#FFFFFF;stroke-width:5.76"/>
	<rect x="529.93" y="103.74" width="3326.21" height="2482.56" style="fill:none;stroke:#000000;stroke-width:5.76"/>
	<line x1="527.05" y1="2053.45" x2="3859.02" y2="2053.45" style="stroke:#E7ECEC;stroke-width:8.64"/>
	<line x1="527.05" y1="1581.20" x2="3859.02" y2="1581.20" style="stroke:#E7ECEC;stroke-width:8.64"/>
	<line x1="527.05" y1="1108.83" x2="3859.02" y2="1108.83" style="stroke:#E7ECEC;stroke-width:8.64"/>
	<line x1="527.05" y1="636.47" x2="3859.02" y2="636.47" style="stroke:#E7ECEC;stroke-width:8.64"/>
	<line x1="590.41" y1="2589.18" x2="590.41" y2="100.86" style="stroke:#E7ECEC;stroke-width:8.64"/>
	<line x1="1042.84" y1="2589.18" x2="1042.84" y2="100.86" style="stroke:#E7ECEC;stroke-width:8.64"/>
	<line x1="1495.39" y1="2589.18" x2="1495.39" y2="100.86" style="stroke:#E7ECEC;stroke-width:8.64"/>
	<line x1="1947.95" y1="2589.18" x2="1947.95" y2="100.86" style="stroke:#E7ECEC;stroke-width:8.64"/>
	<line x1="2400.50" y1="2589.18" x2="2400.50" y2="100.86" style="stroke:#E7ECEC;stroke-width:8.64"/>
	<line x1="2852.93" y1="2589.18" x2="2852.93" y2="100.86" style="stroke:#E7ECEC;stroke-width:8.64"/>
	<line x1="3305.49" y1="2589.18" x2="3305.49" y2="100.86" style="stroke:#E7ECEC;stroke-width:8.64"/>
	<line x1="3758.04" y1="2589.18" x2="3758.04" y2="100.86" style="stroke:#E7ECEC;stroke-width:8.64"/>
	<path d=" M590.29 2074.73 L628.03 2099.98 L665.77 2096.51 L703.39 2098.49 L741.14 2103.44 L778.88 2093.67 L816.63 2089.58 L854.25 2092.31 L891.99 2093.17 L929.73 2083.40 L967.48 2085.87 L1005.10 2100.10 L1042.84 2083.15 L1080.59 2095.40 L1118.20 2086.61 L1155.95 2085.75 L1193.69 2087.48 L1231.44 2091.19 L1269.06 2091.44 L1306.80 2087.98 L1344.54 2097.38 L1382.29 2086.61 L1419.91 2086.00 L1457.65 2089.21 L1495.39 2083.77 L1533.02 2084.76 L1570.76 2085.25 L1608.50 2087.73 L1646.25 2087.60 L1683.87 2091.32 L1721.61 2098.00 L1759.35 2097.26 L1797.10 2092.93 L1834.72 2079.31 L1872.46 2079.81 L1910.20 2081.29 L1947.83 2076.34 L1985.57 2076.71 L2023.31 2076.71 L2061.06 2077.70 L2098.68 2079.93 L2136.42 2081.05 L2174.16 2083.89 L2211.78 2083.40 L2249.53 2079.19 L2287.27 2070.77 L2325.01 2071.52 L2362.64 2073.25 L2400.38 2066.32 L2438.12 2068.30 L2475.87 2068.92 L2513.49 2070.28 L2551.23 2071.02 L2588.97 2073.50 L2626.59 2075.35 L2664.34 2075.48 L2702.08 2070.40 L2739.82 1992.19 L2777.45 1993.55 L2815.19 2062.85 L2852.93 1988.48 L2890.68 1989.10 L2928.30 1986.99 L2966.04 1793.56 L3003.78 1790.35 L3041.40 1788.74 L3079.15 1794.68 L3116.89 1869.18 L3154.64 1864.72 L3192.26 1789.23 L3230.00 1788.99 L3267.74 1788.12 L3305.49 1780.82 L3343.11 1778.71 L3380.85 1778.34 L3418.59 1779.70 L3456.21 1783.17 L3493.96 1787.62 L3531.70 1795.17 L3569.45 1799.75 L3607.07 1794.93 L3644.81 1794.93 L3682.55 1795.30 L3720.30 1797.28 L3757.92 1789.48 L3795.66 1790.59" stroke-linejoin="round" style="fill:none;stroke:#1FA138;stroke-width:8.64"/>
	<line x1="527.05" y1="2589.18" x2="527.05" y2="100.86" style="stroke:#000000;stroke-width:5.76"/>
	<line x1="527.05" y1="2525.82" x2="487.08" y2="2525.82" style="stroke:#000000;stroke-width:5.76"/>
	<text x="467.03" y="2560.84" style="font-family:'Open Sans';font-size:99.99px;fill:#274247" text-anchor="end">0.0</text>
	<line x1="527.05" y1="2053.45" x2="487.08" y2="2053.45" style="stroke:#000000;stroke-width:5.76"/>
	<text x="467.03" y="2088.48" style="font-family:'Open Sans';font-size:99.99px;fill:#274247" text-anchor="end">10.0</text>
	<line x1="527.05" y1="1581.20" x2="487.08" y2="1581.20" style="stroke:#000000;stroke-width:5.76"/>
	<text x="467.03" y="1616.23" style="font-family:'Open Sans';font-size:99.99px;fill:#274247" text-anchor="end">20.0</text>
	<line x1="527.05" y1="1108.83" x2="487.08" y2="1108.83" style="stroke:#000000;stroke-width:5.76"/>
	<text x="467.03" y="1143.86" style="font-family:'Open Sans';font-size:99.99px;fill:#274247" text-anchor="end">30.0</text>
	<line x1="527.05" y1="636.47" x2="487.08" y2="636.47" style="stroke:#000000;stroke-width:5.76"/>
	<text x="467.03" y="671.49" style="font-family:'Open Sans';font-size:99.99px;fill:#274247" text-anchor="end">40.0</text>
	<line x1="527.05" y1="164.22" x2="487.08" y2="164.22" style="stroke:#000000;stroke-width:5.76"/>
	<text x="467.03" y="199.25" style="font-family:'Open Sans';font-size:99.99px;fill:#274247" text-anchor="end">50.0</text>
	<text x="190.71" y="1344.96" style="font-family:'Open Sans';font-size:99.99px;fill:#274247" transform="rotate(-90 190.71,1344.96)" text-anchor="middle">Prosent</text>
	<line x1="527.05" y1="2589.18" x2="3859.02" y2="2589.18" style="stroke:#000000;stroke-width:5.76"/>
	<line x1="590.41" y1="2589.18" x2="590.41" y2="2629.15" style="stroke:#000000;stroke-width:5.76"/>
	<text x="590.41" y="2719.13" style="font-family:'Open Sans';font-size:99.99px;fill:#274247" text-anchor="middle">2015</text>
	<line x1="1042.84" y1="2589.18" x2="1042.84" y2="2629.15" style="stroke:#000000;stroke-width:5.76"/>
	<text x="1042.84" y="2719.13" style="font-family:'Open Sans';font-size:99.99px;fill:#274247" text-anchor="middle">2016</text>
	<line x1="1495.39" y1="2589.18" x2="1495.39" y2="2629.15" style="stroke:#000000;stroke-width:5.76"/>
	<text x="1495.39" y="2719.13" style="font-family:'Open Sans';font-size:99.99px;fill:#274247" text-anchor="middle">2017</text>
	<line x1="1947.95" y1="2589.18" x2="1947.95" y2="2629.15" style="stroke:#000000;stroke-width:5.76"/>
	<text x="1947.95" y="2719.13" style="font-family:'Open Sans';font-size:99.99px;fill:#274247" text-anchor="middle">2018</text>
	<line x1="2400.50" y1="2589.18" x2="2400.50" y2="2629.15" style="stroke:#000000;stroke-width:5.76"/>
	<text x="2400.50" y="2719.13" style="font-family:'Open Sans';font-size:99.99px;fill:#274247" text-anchor="middle">2019</text>
	<line x1="2852.93" y1="2589.18" x2="2852.93" y2="2629.15" style="stroke:#000000;stroke-width:5.76"/>
	<text x="2852.93" y="2719.13" style="font-family:'Open Sans';font-size:99.99px;fill:#274247" text-anchor="middle">2020</text>
	<line x1="3305.49" y1="2589.18" x2="3305.49" y2="2629.15" style="stroke:#000000;stroke-width:5.76"/>
	<text x="3305.49" y="2719.13" style="font-family:'Open Sans';font-size:99.99px;fill:#274247" text-anchor="middle">2021</text>
	<line x1="3758.04" y1="2589.18" x2="3758.04" y2="2629.15" style="stroke:#000000;stroke-width:5.76"/>
	<text x="3758.04" y="2719.13" style="font-family:'Open Sans';font-size:99.99px;fill:#274247" text-anchor="middle">2022</text>
</svg>
